<svg width="810" height="466" viewBox="0 0 810 466" fill="none" xmlns="http://www.w3.org/2000/svg">
<rect width="810" height="466" rx="25" fill="#1F1B24"/>
<g clip-path="url(#clip0_20_226)">
<g clip-path="url(#clip1_20_226)">
<g clip-path="url(#clip2_20_226)">
<path d="M467.615 155.65C459.366 163.934 455.722 174.021 458.021 183.379C459.567 189.609 463.851 195.17 470.301 198.923C472.011 199.924 473.881 200.8 475.911 201.553C475.874 201.126 475.855 200.681 475.854 200.219C475.846 197.444 476.408 194.813 477.416 192.414C476.472 192.003 475.617 191.574 474.833 191.109C470.165 188.393 467.755 184.989 466.82 181.251C464.974 173.765 469.473 163.469 482.085 155.823L477.372 148.058C473.641 150.323 470.379 152.879 467.615 155.65V155.65ZM514.258 148.153L509.583 155.895C522.233 163.614 526.796 173.925 524.985 181.409C524.07 185.141 521.678 188.532 517.025 191.223C516.243 191.684 515.391 192.108 514.502 192.497C515.523 194.901 516.081 197.553 516.089 200.328C516.09 200.79 516.091 201.217 516.039 201.662C518.047 200.902 519.895 200.054 521.599 199.062C528.028 195.344 532.282 189.806 533.795 183.585C536.803 171.124 529.224 157.265 514.258 148.153V148.153ZM484.913 189.197C482.093 192.018 480.342 195.909 480.372 200.231C480.395 208.876 487.387 215.832 496.014 215.873C504.64 215.879 511.576 208.943 511.571 200.316C511.547 191.671 504.556 184.715 495.929 184.674C491.607 184.644 487.716 186.395 484.913 189.197V189.197ZM488.676 192.961C490.539 191.098 493.115 189.949 495.926 189.957C501.6 189.954 506.273 194.627 506.288 200.284C506.303 205.976 501.656 210.588 495.999 210.572C490.343 210.557 485.67 205.92 485.655 200.228C485.629 197.399 486.814 194.823 488.676 192.961V192.961ZM491.869 196.153C490.822 197.2 490.204 198.639 490.19 200.258C490.181 203.477 492.75 206.045 495.987 206.054C499.189 206.063 501.761 203.491 501.752 200.289C501.743 197.052 499.175 194.483 495.956 194.492C494.355 194.488 492.916 195.107 491.869 196.153V196.153ZM482.154 214.821L482.207 234.21L497.753 234.252L509.902 234.267L509.832 214.897C506.23 218.32 501.362 220.405 496.026 220.391C490.654 220.376 485.775 218.264 482.154 214.821ZM471.991 244.461L480.671 250.264L511.511 250.351L520.158 244.594L511.479 238.789L480.654 238.723L471.991 244.461ZM472.033 260.578L480.734 266.395L511.537 266.484L520.201 260.709L511.523 254.905L480.699 254.802L472.033 260.578ZM482.342 270.923L493.9 282.48L493.877 270.945L482.342 270.923ZM498.422 270.967L498.453 282.493L509.945 271.001L498.422 270.967Z" fill="#BB96FC"/>
</g>
<path fill-rule="evenodd" clip-rule="evenodd" d="M494.857 126.143C507.875 126.143 518.429 115.59 518.429 102.571C518.429 89.5533 507.875 79 494.857 79C481.839 79 471.286 89.5533 471.286 102.571C471.286 115.59 481.839 126.143 494.857 126.143ZM494.857 121.857C505.508 121.857 514.143 113.223 514.143 102.572C514.143 91.9203 505.508 83.2858 494.857 83.2858C484.206 83.2858 475.571 91.9203 475.571 102.572C475.571 113.223 484.206 121.857 494.857 121.857Z" fill="#BB96FC"/>
<path d="M439.938 92.259H299.062C295.395 92.259 292.432 95.2216 292.432 98.8885V235.621C292.432 239.288 295.395 242.251 299.062 242.251H439.938C443.605 242.251 446.568 239.288 446.568 235.621V98.8885C446.568 95.2216 443.605 92.259 439.938 92.259ZM325.58 146.952C325.58 140.095 331.153 134.522 338.01 134.522C344.867 134.522 350.44 140.095 350.44 146.952C350.44 153.809 344.867 159.382 338.01 159.382C331.153 159.382 325.58 153.809 325.58 146.952ZM402.647 198.33C402.647 199.242 401.901 199.988 400.99 199.988H338.01C337.098 199.988 336.353 199.242 336.353 198.33V185.9C336.353 184.989 337.098 184.243 338.01 184.243H400.99C401.901 184.243 402.647 184.989 402.647 185.9V198.33ZM400.99 159.382C394.133 159.382 388.56 153.809 388.56 146.952C388.56 140.095 394.133 134.522 400.99 134.522C407.847 134.522 413.42 140.095 413.42 146.952C413.42 153.809 407.847 159.382 400.99 159.382ZM428.958 257.996H310.042C307.183 257.996 304.863 260.958 304.863 264.625V276.227C304.863 277.138 305.443 277.884 306.147 277.884H432.832C433.536 277.884 434.117 277.138 434.117 276.227V264.625C434.137 260.958 431.817 257.996 428.958 257.996V257.996Z" fill="#BB96FC"/>
</g>
<g clip-path="url(#clip3_20_226)">
<path d="M114.625 295V386H95.9375V295H114.625ZM142.625 295V309.688H68.375V295H142.625ZM231.562 290V386H213.5V290H231.562ZM277.562 387.25C272.312 387.25 267.604 386.417 263.438 384.75C259.271 383.042 255.729 380.688 252.812 377.688C249.938 374.688 247.729 371.208 246.188 367.25C244.646 363.25 243.875 359 243.875 354.5V352C243.875 346.875 244.604 342.188 246.062 337.938C247.521 333.688 249.604 330 252.312 326.875C255.062 323.75 258.396 321.354 262.312 319.688C266.229 317.979 270.646 317.125 275.562 317.125C280.354 317.125 284.604 317.917 288.312 319.5C292.021 321.083 295.125 323.333 297.625 326.25C300.167 329.167 302.083 332.667 303.375 336.75C304.667 340.792 305.312 345.292 305.312 350.25V357.75H251.562V345.75H287.625V344.375C287.625 341.875 287.167 339.646 286.25 337.688C285.375 335.688 284.042 334.104 282.25 332.938C280.458 331.771 278.167 331.188 275.375 331.188C273 331.188 270.958 331.708 269.25 332.75C267.542 333.792 266.146 335.25 265.062 337.125C264.021 339 263.229 341.208 262.688 343.75C262.188 346.25 261.938 349 261.938 352V354.5C261.938 357.208 262.312 359.708 263.062 362C263.854 364.292 264.958 366.271 266.375 367.938C267.833 369.604 269.583 370.896 271.625 371.812C273.708 372.729 276.062 373.188 278.688 373.188C281.938 373.188 284.958 372.562 287.75 371.312C290.583 370.021 293.021 368.083 295.062 365.5L303.812 375C302.396 377.042 300.458 379 298 380.875C295.583 382.75 292.667 384.292 289.25 385.5C285.833 386.667 281.938 387.25 277.562 387.25ZM357.125 295H373L396.375 361.812L419.75 295H435.625L402.75 386H390L357.125 295ZM348.562 295H364.375L367.25 360.125V386H348.562V295ZM428.375 295H444.25V386H425.5V360.125L428.375 295ZM496.062 370.75V340.625C496.062 338.458 495.708 336.604 495 335.062C494.292 333.479 493.188 332.25 491.688 331.375C490.229 330.5 488.333 330.062 486 330.062C484 330.062 482.271 330.417 480.812 331.125C479.354 331.792 478.229 332.771 477.438 334.062C476.646 335.312 476.25 336.792 476.25 338.5H458.25C458.25 335.625 458.917 332.896 460.25 330.312C461.583 327.729 463.521 325.458 466.062 323.5C468.604 321.5 471.625 319.938 475.125 318.812C478.667 317.688 482.625 317.125 487 317.125C492.25 317.125 496.917 318 501 319.75C505.083 321.5 508.292 324.125 510.625 327.625C513 331.125 514.188 335.5 514.188 340.75V369.688C514.188 373.396 514.417 376.438 514.875 378.812C515.333 381.146 516 383.188 516.875 384.938V386H498.688C497.812 384.167 497.146 381.875 496.688 379.125C496.271 376.333 496.062 373.542 496.062 370.75ZM498.438 344.812L498.562 355H488.5C486.125 355 484.062 355.271 482.312 355.812C480.562 356.354 479.125 357.125 478 358.125C476.875 359.083 476.042 360.208 475.5 361.5C475 362.792 474.75 364.208 474.75 365.75C474.75 367.292 475.104 368.688 475.812 369.938C476.521 371.146 477.542 372.104 478.875 372.812C480.208 373.479 481.771 373.812 483.562 373.812C486.271 373.812 488.625 373.271 490.625 372.188C492.625 371.104 494.167 369.771 495.25 368.188C496.375 366.604 496.958 365.104 497 363.688L501.75 371.312C501.083 373.021 500.167 374.792 499 376.625C497.875 378.458 496.438 380.188 494.688 381.812C492.938 383.396 490.833 384.708 488.375 385.75C485.917 386.75 483 387.25 479.625 387.25C475.333 387.25 471.438 386.396 467.938 384.688C464.479 382.938 461.729 380.542 459.688 377.5C457.688 374.417 456.688 370.917 456.688 367C456.688 363.458 457.354 360.312 458.688 357.562C460.021 354.812 461.979 352.5 464.562 350.625C467.188 348.708 470.458 347.271 474.375 346.312C478.292 345.312 482.833 344.812 488 344.812H498.438ZM564.625 367.312C564.625 366.021 564.25 364.854 563.5 363.812C562.75 362.771 561.354 361.812 559.312 360.938C557.312 360.021 554.417 359.188 550.625 358.438C547.208 357.688 544.021 356.75 541.062 355.625C538.146 354.458 535.604 353.062 533.438 351.438C531.312 349.812 529.646 347.896 528.438 345.688C527.229 343.438 526.625 340.875 526.625 338C526.625 335.167 527.229 332.5 528.438 330C529.688 327.5 531.458 325.292 533.75 323.375C536.083 321.417 538.917 319.896 542.25 318.812C545.625 317.688 549.417 317.125 553.625 317.125C559.5 317.125 564.542 318.062 568.75 319.938C573 321.812 576.25 324.396 578.5 327.688C580.792 330.938 581.938 334.646 581.938 338.812H563.938C563.938 337.062 563.562 335.5 562.812 334.125C562.104 332.708 560.979 331.604 559.438 330.812C557.938 329.979 555.979 329.562 553.562 329.562C551.562 329.562 549.833 329.917 548.375 330.625C546.917 331.292 545.792 332.208 545 333.375C544.25 334.5 543.875 335.75 543.875 337.125C543.875 338.167 544.083 339.104 544.5 339.938C544.958 340.729 545.688 341.458 546.688 342.125C547.688 342.792 548.979 343.417 550.562 344C552.188 344.542 554.188 345.042 556.562 345.5C561.438 346.5 565.792 347.812 569.625 349.438C573.458 351.021 576.5 353.188 578.75 355.938C581 358.646 582.125 362.208 582.125 366.625C582.125 369.625 581.458 372.375 580.125 374.875C578.792 377.375 576.875 379.562 574.375 381.438C571.875 383.271 568.875 384.708 565.375 385.75C561.917 386.75 558.021 387.25 553.688 387.25C547.396 387.25 542.062 386.125 537.688 383.875C533.354 381.625 530.062 378.771 527.812 375.312C525.604 371.812 524.5 368.229 524.5 364.562H541.562C541.646 367.021 542.271 369 543.438 370.5C544.646 372 546.167 373.083 548 373.75C549.875 374.417 551.896 374.75 554.062 374.75C556.396 374.75 558.333 374.438 559.875 373.812C561.417 373.146 562.583 372.271 563.375 371.188C564.208 370.062 564.625 368.771 564.625 367.312ZM626.938 318.375V331.125H587.562V318.375H626.938ZM597.312 301.688H615.312V365.625C615.312 367.583 615.562 369.083 616.062 370.125C616.604 371.167 617.396 371.896 618.438 372.312C619.479 372.688 620.792 372.875 622.375 372.875C623.5 372.875 624.5 372.833 625.375 372.75C626.292 372.625 627.062 372.5 627.688 372.375L627.75 385.625C626.208 386.125 624.542 386.521 622.75 386.812C620.958 387.104 618.979 387.25 616.812 387.25C612.854 387.25 609.396 386.604 606.438 385.312C603.521 383.979 601.271 381.854 599.688 378.938C598.104 376.021 597.312 372.188 597.312 367.438V301.688ZM668.312 387.25C663.062 387.25 658.354 386.417 654.188 384.75C650.021 383.042 646.479 380.688 643.562 377.688C640.688 374.688 638.479 371.208 636.938 367.25C635.396 363.25 634.625 359 634.625 354.5V352C634.625 346.875 635.354 342.188 636.812 337.938C638.271 333.688 640.354 330 643.062 326.875C645.812 323.75 649.146 321.354 653.062 319.688C656.979 317.979 661.396 317.125 666.312 317.125C671.104 317.125 675.354 317.917 679.062 319.5C682.771 321.083 685.875 323.333 688.375 326.25C690.917 329.167 692.833 332.667 694.125 336.75C695.417 340.792 696.062 345.292 696.062 350.25V357.75H642.312V345.75H678.375V344.375C678.375 341.875 677.917 339.646 677 337.688C676.125 335.688 674.792 334.104 673 332.938C671.208 331.771 668.917 331.188 666.125 331.188C663.75 331.188 661.708 331.708 660 332.75C658.292 333.792 656.896 335.25 655.812 337.125C654.771 339 653.979 341.208 653.438 343.75C652.938 346.25 652.688 349 652.688 352V354.5C652.688 357.208 653.062 359.708 653.812 362C654.604 364.292 655.708 366.271 657.125 367.938C658.583 369.604 660.333 370.896 662.375 371.812C664.458 372.729 666.812 373.188 669.438 373.188C672.688 373.188 675.708 372.562 678.5 371.312C681.333 370.021 683.771 368.083 685.812 365.5L694.562 375C693.146 377.042 691.208 379 688.75 380.875C686.333 382.75 683.417 384.292 680 385.5C676.583 386.667 672.688 387.25 668.312 387.25ZM724.312 333.125V386H706.312V318.375H723.25L724.312 333.125ZM744.688 317.938L744.375 334.625C743.5 334.5 742.438 334.396 741.188 334.312C739.979 334.188 738.875 334.125 737.875 334.125C735.333 334.125 733.125 334.458 731.25 335.125C729.417 335.75 727.875 336.688 726.625 337.938C725.417 339.188 724.5 340.708 723.875 342.5C723.292 344.292 722.958 346.333 722.875 348.625L719.25 347.5C719.25 343.125 719.688 339.104 720.562 335.438C721.438 331.729 722.708 328.5 724.375 325.75C726.083 323 728.167 320.875 730.625 319.375C733.083 317.875 735.896 317.125 739.062 317.125C740.062 317.125 741.083 317.208 742.125 317.375C743.167 317.5 744.021 317.688 744.688 317.938Z" fill="#BB96FC"/>
<g clip-path="url(#clip4_20_226)">
<path d="M160.287 325.77C156.438 329.636 154.737 334.343 155.81 338.711C156.531 341.618 158.531 344.213 161.54 345.964C162.338 346.431 163.211 346.84 164.158 347.192C164.141 346.992 164.132 346.785 164.132 346.569C164.128 345.274 164.391 344.046 164.861 342.927C164.42 342.735 164.021 342.535 163.655 342.318C161.477 341.05 160.352 339.462 159.916 337.717C159.055 334.224 161.154 329.419 167.04 325.851L164.84 322.227C163.099 323.284 161.577 324.477 160.287 325.77V325.77ZM182.054 322.272L179.872 325.885C185.775 329.487 187.905 334.299 187.059 337.791C186.633 339.533 185.516 341.115 183.345 342.371C182.98 342.586 182.582 342.784 182.168 342.966C182.644 344.087 182.905 345.325 182.908 346.62C182.909 346.836 182.909 347.035 182.885 347.242C183.822 346.888 184.684 346.492 185.48 346.029C188.48 344.294 190.465 341.71 191.171 338.806C192.575 332.991 189.038 326.524 182.054 322.272V322.272ZM168.359 341.426C167.043 342.742 166.226 344.558 166.24 346.575C166.251 350.609 169.514 353.855 173.54 353.874C177.566 353.877 180.802 350.64 180.8 346.614C180.789 342.58 177.526 339.334 173.5 339.315C171.483 339.301 169.667 340.118 168.359 341.426V341.426ZM170.116 343.182C170.985 342.313 172.187 341.776 173.499 341.78C176.146 341.779 178.327 343.96 178.334 346.599C178.342 349.255 176.173 351.408 173.533 351.401C170.893 351.393 168.713 349.229 168.705 346.573C168.694 345.253 169.246 344.051 170.116 343.182V343.182ZM171.606 344.672C171.117 345.16 170.828 345.832 170.822 346.587C170.818 348.09 172.016 349.288 173.527 349.292C175.021 349.296 176.222 348.096 176.218 346.602C176.214 345.091 175.015 343.892 173.513 343.897C172.766 343.895 172.094 344.183 171.606 344.672V344.672ZM167.072 353.384L167.097 362.431L174.351 362.451L180.021 362.458L179.988 353.419C178.307 355.016 176.036 355.989 173.545 355.983C171.039 355.976 168.761 354.99 167.072 353.384ZM162.329 367.215L166.38 369.923L180.772 369.964L184.807 367.277L180.757 364.568L166.372 364.538L162.329 367.215ZM162.349 374.737L166.409 377.451L180.784 377.493L184.827 374.798L180.777 372.089L166.393 372.041L162.349 374.737ZM167.16 379.564L172.553 384.958L172.543 379.575L167.16 379.564ZM174.664 379.585L174.678 384.963L180.041 379.601L174.664 379.585Z" fill="#BB96FC"/>
</g>
<path fill-rule="evenodd" clip-rule="evenodd" d="M173 312C179.075 312 184 307.075 184 301C184 294.925 179.075 290 173 290C166.925 290 162 294.925 162 301C162 307.075 166.925 312 173 312ZM173 310C177.971 310 182 305.971 182 301C182 296.029 177.971 292 173 292C168.029 292 164 296.029 164 301C164 305.971 168.029 310 173 310Z" fill="#BB96FC"/>
</g>
</g>
<defs>
<clipPath id="clip0_20_226">
<rect width="690" height="325" fill="white" transform="translate(60 71)"/>
</clipPath>
<clipPath id="clip1_20_226">
<rect width="300" height="300" fill="white" transform="translate(257 34)"/>
</clipPath>
<clipPath id="clip2_20_226">
<rect width="128.445" height="129.144" fill="white" transform="translate(404.857 199.824) rotate(-45)"/>
</clipPath>
<clipPath id="clip3_20_226">
<rect width="688" height="103" fill="white" transform="translate(62 290)"/>
</clipPath>
<clipPath id="clip4_20_226">
<rect width="59.9411" height="60.267" fill="white" transform="translate(131 346.385) rotate(-45)"/>
</clipPath>
</defs>
</svg>
