<svg width="690" height="325" viewBox="0 0 690 325" fill="none" xmlns="http://www.w3.org/2000/svg">
<g clip-path="url(#clip0_20_209)">
<g clip-path="url(#clip1_20_209)">
<g clip-path="url(#clip2_20_209)">
<path d="M407.615 84.6501C399.366 92.9344 395.722 103.021 398.021 112.379C399.567 118.609 403.851 124.17 410.301 127.923C412.011 128.924 413.881 129.8 415.911 130.553C415.874 130.126 415.855 129.681 415.854 129.219C415.846 126.444 416.408 123.813 417.416 121.414C416.472 121.003 415.617 120.574 414.833 120.109C410.165 117.393 407.755 113.989 406.82 110.251C404.974 102.765 409.473 92.4691 422.085 84.8227L417.372 77.0582C413.641 79.3231 410.379 81.8792 407.615 84.6501V84.6501ZM454.258 77.1529L449.583 84.8955C462.233 92.6139 466.796 102.925 464.985 110.409C464.07 114.141 461.678 117.532 457.025 120.223C456.243 120.684 455.391 121.108 454.502 121.497C455.523 123.901 456.081 126.553 456.089 129.328C456.09 129.79 456.091 130.217 456.039 130.662C458.047 129.902 459.895 129.054 461.599 128.062C468.028 124.344 472.282 118.806 473.795 112.585C476.803 100.124 469.224 86.265 454.258 77.1529V77.1529ZM424.913 118.197C422.093 121.018 420.342 124.909 420.372 129.231C420.395 137.876 427.387 144.832 436.014 144.873C444.64 144.879 451.576 137.943 451.571 129.316C451.547 120.671 444.556 113.715 435.929 113.674C431.607 113.644 427.716 115.395 424.913 118.197V118.197ZM428.676 121.961C430.539 120.098 433.115 118.949 435.926 118.957C441.6 118.954 446.273 123.627 446.288 129.284C446.303 134.976 441.656 139.588 435.999 139.572C430.343 139.557 425.67 134.92 425.655 129.228C425.629 126.399 426.814 123.823 428.676 121.961V121.961ZM431.869 125.153C430.822 126.2 430.204 127.639 430.19 129.258C430.181 132.477 432.75 135.045 435.987 135.054C439.189 135.063 441.761 132.491 441.752 129.289C441.743 126.052 439.175 123.483 435.956 123.492C434.355 123.488 432.916 124.107 431.869 125.153V125.153ZM422.154 143.821L422.207 163.21L437.753 163.252L449.902 163.267L449.832 143.897C446.23 147.32 441.362 149.405 436.026 149.391C430.654 149.376 425.775 147.264 422.154 143.821ZM411.991 173.461L420.671 179.264L451.511 179.351L460.158 173.594L451.479 167.789L420.654 167.723L411.991 173.461ZM412.033 189.578L420.734 195.395L451.537 195.484L460.201 189.709L451.523 183.905L420.699 183.802L412.033 189.578ZM422.342 199.923L433.9 211.48L433.877 199.945L422.342 199.923ZM438.422 199.967L438.453 211.493L449.945 200.001L438.422 199.967Z" fill="black"/>
</g>
<path fill-rule="evenodd" clip-rule="evenodd" d="M434.857 55.1429C447.875 55.1429 458.429 44.5896 458.429 31.5714C458.429 18.5533 447.875 8 434.857 8C421.839 8 411.286 18.5533 411.286 31.5714C411.286 44.5896 421.839 55.1429 434.857 55.1429ZM434.857 50.8572C445.508 50.8572 454.143 42.2227 454.143 31.5715C454.143 20.9203 445.508 12.2858 434.857 12.2858C424.206 12.2858 415.571 20.9203 415.571 31.5715C415.571 42.2227 424.206 50.8572 434.857 50.8572Z" fill="black"/>
<path d="M379.938 21.259H239.062C235.395 21.259 232.432 24.2216 232.432 27.8885V164.621C232.432 168.288 235.395 171.251 239.062 171.251H379.938C383.605 171.251 386.567 168.288 386.567 164.621V27.8885C386.567 24.2216 383.605 21.259 379.938 21.259ZM265.58 75.9521C265.58 69.0948 271.153 63.5219 278.01 63.5219C284.867 63.5219 290.44 69.0948 290.44 75.9521C290.44 82.8095 284.867 88.3824 278.01 88.3824C271.153 88.3824 265.58 82.8095 265.58 75.9521ZM342.647 127.33C342.647 128.242 341.901 128.988 340.99 128.988H278.01C277.098 128.988 276.353 128.242 276.353 127.33V114.9C276.353 113.989 277.098 113.243 278.01 113.243H340.99C341.901 113.243 342.647 113.989 342.647 114.9V127.33ZM340.99 88.3824C334.133 88.3824 328.56 82.8095 328.56 75.9521C328.56 69.0948 334.133 63.5219 340.99 63.5219C347.847 63.5219 353.42 69.0948 353.42 75.9521C353.42 82.8095 347.847 88.3824 340.99 88.3824ZM368.958 186.996H250.042C247.183 186.996 244.863 189.958 244.863 193.625V205.227C244.863 206.138 245.443 206.884 246.147 206.884H372.832C373.536 206.884 374.117 206.138 374.117 205.227V193.625C374.137 189.958 371.817 186.996 368.958 186.996V186.996Z" fill="black"/>
</g>
<g clip-path="url(#clip3_20_209)">
<path d="M54.625 224V315H35.9375V224H54.625ZM82.625 224V238.688H8.375V224H82.625ZM171.562 219V315H153.5V219H171.562ZM217.562 316.25C212.312 316.25 207.604 315.417 203.438 313.75C199.271 312.042 195.729 309.688 192.812 306.688C189.938 303.688 187.729 300.208 186.188 296.25C184.646 292.25 183.875 288 183.875 283.5V281C183.875 275.875 184.604 271.188 186.062 266.938C187.521 262.688 189.604 259 192.312 255.875C195.062 252.75 198.396 250.354 202.312 248.688C206.229 246.979 210.646 246.125 215.562 246.125C220.354 246.125 224.604 246.917 228.312 248.5C232.021 250.083 235.125 252.333 237.625 255.25C240.167 258.167 242.083 261.667 243.375 265.75C244.667 269.792 245.312 274.292 245.312 279.25V286.75H191.562V274.75H227.625V273.375C227.625 270.875 227.167 268.646 226.25 266.688C225.375 264.688 224.042 263.104 222.25 261.938C220.458 260.771 218.167 260.188 215.375 260.188C213 260.188 210.958 260.708 209.25 261.75C207.542 262.792 206.146 264.25 205.062 266.125C204.021 268 203.229 270.208 202.688 272.75C202.188 275.25 201.938 278 201.938 281V283.5C201.938 286.208 202.312 288.708 203.062 291C203.854 293.292 204.958 295.271 206.375 296.938C207.833 298.604 209.583 299.896 211.625 300.812C213.708 301.729 216.062 302.188 218.688 302.188C221.938 302.188 224.958 301.562 227.75 300.312C230.583 299.021 233.021 297.083 235.062 294.5L243.812 304C242.396 306.042 240.458 308 238 309.875C235.583 311.75 232.667 313.292 229.25 314.5C225.833 315.667 221.938 316.25 217.562 316.25ZM297.125 224H313L336.375 290.812L359.75 224H375.625L342.75 315H330L297.125 224ZM288.562 224H304.375L307.25 289.125V315H288.562V224ZM368.375 224H384.25V315H365.5V289.125L368.375 224ZM436.062 299.75V269.625C436.062 267.458 435.708 265.604 435 264.062C434.292 262.479 433.188 261.25 431.688 260.375C430.229 259.5 428.333 259.062 426 259.062C424 259.062 422.271 259.417 420.812 260.125C419.354 260.792 418.229 261.771 417.438 263.062C416.646 264.312 416.25 265.792 416.25 267.5H398.25C398.25 264.625 398.917 261.896 400.25 259.312C401.583 256.729 403.521 254.458 406.062 252.5C408.604 250.5 411.625 248.938 415.125 247.812C418.667 246.688 422.625 246.125 427 246.125C432.25 246.125 436.917 247 441 248.75C445.083 250.5 448.292 253.125 450.625 256.625C453 260.125 454.188 264.5 454.188 269.75V298.688C454.188 302.396 454.417 305.438 454.875 307.812C455.333 310.146 456 312.188 456.875 313.938V315H438.688C437.812 313.167 437.146 310.875 436.688 308.125C436.271 305.333 436.062 302.542 436.062 299.75ZM438.438 273.812L438.562 284H428.5C426.125 284 424.062 284.271 422.312 284.812C420.562 285.354 419.125 286.125 418 287.125C416.875 288.083 416.042 289.208 415.5 290.5C415 291.792 414.75 293.208 414.75 294.75C414.75 296.292 415.104 297.688 415.812 298.938C416.521 300.146 417.542 301.104 418.875 301.812C420.208 302.479 421.771 302.812 423.562 302.812C426.271 302.812 428.625 302.271 430.625 301.188C432.625 300.104 434.167 298.771 435.25 297.188C436.375 295.604 436.958 294.104 437 292.688L441.75 300.312C441.083 302.021 440.167 303.792 439 305.625C437.875 307.458 436.438 309.188 434.688 310.812C432.938 312.396 430.833 313.708 428.375 314.75C425.917 315.75 423 316.25 419.625 316.25C415.333 316.25 411.438 315.396 407.938 313.688C404.479 311.938 401.729 309.542 399.688 306.5C397.688 303.417 396.688 299.917 396.688 296C396.688 292.458 397.354 289.312 398.688 286.562C400.021 283.812 401.979 281.5 404.562 279.625C407.188 277.708 410.458 276.271 414.375 275.312C418.292 274.312 422.833 273.812 428 273.812H438.438ZM504.625 296.312C504.625 295.021 504.25 293.854 503.5 292.812C502.75 291.771 501.354 290.812 499.312 289.938C497.312 289.021 494.417 288.188 490.625 287.438C487.208 286.688 484.021 285.75 481.062 284.625C478.146 283.458 475.604 282.062 473.438 280.438C471.312 278.812 469.646 276.896 468.438 274.688C467.229 272.438 466.625 269.875 466.625 267C466.625 264.167 467.229 261.5 468.438 259C469.688 256.5 471.458 254.292 473.75 252.375C476.083 250.417 478.917 248.896 482.25 247.812C485.625 246.688 489.417 246.125 493.625 246.125C499.5 246.125 504.542 247.062 508.75 248.938C513 250.812 516.25 253.396 518.5 256.688C520.792 259.938 521.938 263.646 521.938 267.812H503.938C503.938 266.062 503.562 264.5 502.812 263.125C502.104 261.708 500.979 260.604 499.438 259.812C497.938 258.979 495.979 258.562 493.562 258.562C491.562 258.562 489.833 258.917 488.375 259.625C486.917 260.292 485.792 261.208 485 262.375C484.25 263.5 483.875 264.75 483.875 266.125C483.875 267.167 484.083 268.104 484.5 268.938C484.958 269.729 485.688 270.458 486.688 271.125C487.688 271.792 488.979 272.417 490.562 273C492.188 273.542 494.188 274.042 496.562 274.5C501.438 275.5 505.792 276.812 509.625 278.438C513.458 280.021 516.5 282.188 518.75 284.938C521 287.646 522.125 291.208 522.125 295.625C522.125 298.625 521.458 301.375 520.125 303.875C518.792 306.375 516.875 308.562 514.375 310.438C511.875 312.271 508.875 313.708 505.375 314.75C501.917 315.75 498.021 316.25 493.688 316.25C487.396 316.25 482.062 315.125 477.688 312.875C473.354 310.625 470.062 307.771 467.812 304.312C465.604 300.812 464.5 297.229 464.5 293.562H481.562C481.646 296.021 482.271 298 483.438 299.5C484.646 301 486.167 302.083 488 302.75C489.875 303.417 491.896 303.75 494.062 303.75C496.396 303.75 498.333 303.438 499.875 302.812C501.417 302.146 502.583 301.271 503.375 300.188C504.208 299.062 504.625 297.771 504.625 296.312ZM566.938 247.375V260.125H527.562V247.375H566.938ZM537.312 230.688H555.312V294.625C555.312 296.583 555.562 298.083 556.062 299.125C556.604 300.167 557.396 300.896 558.438 301.312C559.479 301.688 560.792 301.875 562.375 301.875C563.5 301.875 564.5 301.833 565.375 301.75C566.292 301.625 567.062 301.5 567.688 301.375L567.75 314.625C566.208 315.125 564.542 315.521 562.75 315.812C560.958 316.104 558.979 316.25 556.812 316.25C552.854 316.25 549.396 315.604 546.438 314.312C543.521 312.979 541.271 310.854 539.688 307.938C538.104 305.021 537.312 301.188 537.312 296.438V230.688ZM608.312 316.25C603.062 316.25 598.354 315.417 594.188 313.75C590.021 312.042 586.479 309.688 583.562 306.688C580.688 303.688 578.479 300.208 576.938 296.25C575.396 292.25 574.625 288 574.625 283.5V281C574.625 275.875 575.354 271.188 576.812 266.938C578.271 262.688 580.354 259 583.062 255.875C585.812 252.75 589.146 250.354 593.062 248.688C596.979 246.979 601.396 246.125 606.312 246.125C611.104 246.125 615.354 246.917 619.062 248.5C622.771 250.083 625.875 252.333 628.375 255.25C630.917 258.167 632.833 261.667 634.125 265.75C635.417 269.792 636.062 274.292 636.062 279.25V286.75H582.312V274.75H618.375V273.375C618.375 270.875 617.917 268.646 617 266.688C616.125 264.688 614.792 263.104 613 261.938C611.208 260.771 608.917 260.188 606.125 260.188C603.75 260.188 601.708 260.708 600 261.75C598.292 262.792 596.896 264.25 595.812 266.125C594.771 268 593.979 270.208 593.438 272.75C592.938 275.25 592.688 278 592.688 281V283.5C592.688 286.208 593.062 288.708 593.812 291C594.604 293.292 595.708 295.271 597.125 296.938C598.583 298.604 600.333 299.896 602.375 300.812C604.458 301.729 606.812 302.188 609.438 302.188C612.688 302.188 615.708 301.562 618.5 300.312C621.333 299.021 623.771 297.083 625.812 294.5L634.562 304C633.146 306.042 631.208 308 628.75 309.875C626.333 311.75 623.417 313.292 620 314.5C616.583 315.667 612.688 316.25 608.312 316.25ZM664.312 262.125V315H646.312V247.375H663.25L664.312 262.125ZM684.688 246.938L684.375 263.625C683.5 263.5 682.438 263.396 681.188 263.312C679.979 263.188 678.875 263.125 677.875 263.125C675.333 263.125 673.125 263.458 671.25 264.125C669.417 264.75 667.875 265.688 666.625 266.938C665.417 268.188 664.5 269.708 663.875 271.5C663.292 273.292 662.958 275.333 662.875 277.625L659.25 276.5C659.25 272.125 659.688 268.104 660.562 264.438C661.438 260.729 662.708 257.5 664.375 254.75C666.083 252 668.167 249.875 670.625 248.375C673.083 246.875 675.896 246.125 679.062 246.125C680.062 246.125 681.083 246.208 682.125 246.375C683.167 246.5 684.021 246.688 684.688 246.938Z" fill="black"/>
<g clip-path="url(#clip4_20_209)">
<path d="M100.287 254.77C96.4375 258.636 94.737 263.343 95.8097 267.711C96.5314 270.618 98.5307 273.213 101.54 274.964C102.338 275.431 103.211 275.84 104.158 276.192C104.141 275.992 104.132 275.785 104.132 275.569C104.128 274.274 104.391 273.046 104.861 271.927C104.42 271.735 104.021 271.535 103.655 271.318C101.477 270.05 100.352 268.462 99.9159 266.717C99.0547 263.224 101.154 258.419 107.04 254.851L104.84 251.227C103.099 252.284 101.577 253.477 100.287 254.77V254.77ZM122.054 251.272L119.872 254.885C125.775 258.487 127.905 263.299 127.059 266.791C126.633 268.533 125.516 270.115 123.345 271.371C122.98 271.586 122.582 271.784 122.168 271.966C122.644 273.087 122.905 274.325 122.908 275.62C122.909 275.836 122.909 276.035 122.885 276.242C123.822 275.888 124.684 275.492 125.48 275.029C128.48 273.294 130.465 270.71 131.171 267.806C132.575 261.991 129.038 255.524 122.054 251.272V251.272ZM108.359 270.426C107.043 271.742 106.226 273.558 106.24 275.575C106.251 279.609 109.514 282.855 113.54 282.874C117.566 282.877 120.802 279.64 120.8 275.614C120.789 271.58 117.526 268.334 113.5 268.315C111.483 268.301 109.667 269.118 108.359 270.426V270.426ZM110.116 272.182C110.985 271.313 112.187 270.776 113.499 270.78C116.146 270.779 118.327 272.96 118.334 275.599C118.342 278.255 116.173 280.408 113.533 280.401C110.893 280.393 108.713 278.229 108.705 275.573C108.694 274.253 109.246 273.051 110.116 272.182V272.182ZM111.606 273.672C111.117 274.16 110.828 274.832 110.822 275.587C110.818 277.09 112.016 278.288 113.527 278.292C115.021 278.296 116.222 277.096 116.218 275.602C116.214 274.091 115.015 272.892 113.513 272.897C112.766 272.895 112.094 273.183 111.606 273.672V273.672ZM107.072 282.384L107.097 291.431L114.351 291.451L120.021 291.458L119.988 282.419C118.307 284.016 116.036 284.989 113.545 284.983C111.039 284.976 108.761 283.99 107.072 282.384ZM102.329 296.215L106.38 298.923L120.772 298.964L124.807 296.277L120.757 293.568L106.372 293.538L102.329 296.215ZM102.349 303.737L106.409 306.451L120.784 306.493L124.827 303.798L120.777 301.089L106.393 301.041L102.349 303.737ZM107.16 308.564L112.553 313.958L112.543 308.575L107.16 308.564ZM114.664 308.585L114.678 313.963L120.041 308.601L114.664 308.585Z" fill="black"/>
</g>
<path fill-rule="evenodd" clip-rule="evenodd" d="M113 241C119.075 241 124 236.075 124 230C124 223.925 119.075 219 113 219C106.925 219 102 223.925 102 230C102 236.075 106.925 241 113 241ZM113 239C117.971 239 122 234.971 122 230C122 225.029 117.971 221 113 221C108.029 221 104 225.029 104 230C104 234.971 108.029 239 113 239Z" fill="black"/>
</g>
</g>
<defs>
<clipPath id="clip0_20_209">
<rect width="690" height="325" fill="white"/>
</clipPath>
<clipPath id="clip1_20_209">
<rect width="300" height="300" fill="white" transform="translate(197 -37)"/>
</clipPath>
<clipPath id="clip2_20_209">
<rect width="128.445" height="129.144" fill="white" transform="translate(344.857 128.824) rotate(-45)"/>
</clipPath>
<clipPath id="clip3_20_209">
<rect width="688" height="103" fill="white" transform="translate(2 219)"/>
</clipPath>
<clipPath id="clip4_20_209">
<rect width="59.9411" height="60.267" fill="white" transform="translate(71 275.385) rotate(-45)"/>
</clipPath>
</defs>
</svg>
