<svg width="688" height="103" viewBox="0 0 688 103" fill="none" xmlns="http://www.w3.org/2000/svg">
<g clip-path="url(#clip0_19_151)">
<path d="M52.625 5V96H33.9375V5H52.625ZM80.625 5V19.6875H6.375V5H80.625ZM169.562 0V96H151.5V0H169.562ZM215.562 97.25C210.312 97.25 205.604 96.4167 201.438 94.75C197.271 93.0417 193.729 90.6875 190.812 87.6875C187.938 84.6875 185.729 81.2083 184.188 77.25C182.646 73.25 181.875 69 181.875 64.5V62C181.875 56.875 182.604 52.1875 184.062 47.9375C185.521 43.6875 187.604 40 190.312 36.875C193.062 33.75 196.396 31.3542 200.312 29.6875C204.229 27.9792 208.646 27.125 213.562 27.125C218.354 27.125 222.604 27.9167 226.312 29.5C230.021 31.0833 233.125 33.3333 235.625 36.25C238.167 39.1667 240.083 42.6667 241.375 46.75C242.667 50.7917 243.312 55.2917 243.312 60.25V67.75H189.562V55.75H225.625V54.375C225.625 51.875 225.167 49.6458 224.25 47.6875C223.375 45.6875 222.042 44.1042 220.25 42.9375C218.458 41.7708 216.167 41.1875 213.375 41.1875C211 41.1875 208.958 41.7083 207.25 42.75C205.542 43.7917 204.146 45.25 203.062 47.125C202.021 49 201.229 51.2083 200.688 53.75C200.188 56.25 199.938 59 199.938 62V64.5C199.938 67.2083 200.312 69.7083 201.062 72C201.854 74.2917 202.958 76.2708 204.375 77.9375C205.833 79.6042 207.583 80.8958 209.625 81.8125C211.708 82.7292 214.062 83.1875 216.688 83.1875C219.938 83.1875 222.958 82.5625 225.75 81.3125C228.583 80.0208 231.021 78.0833 233.062 75.5L241.812 85C240.396 87.0417 238.458 89 236 90.875C233.583 92.75 230.667 94.2917 227.25 95.5C223.833 96.6667 219.938 97.25 215.562 97.25ZM295.125 5H311L334.375 71.8125L357.75 5H373.625L340.75 96H328L295.125 5ZM286.562 5H302.375L305.25 70.125V96H286.562V5ZM366.375 5H382.25V96H363.5V70.125L366.375 5ZM434.062 80.75V50.625C434.062 48.4583 433.708 46.6042 433 45.0625C432.292 43.4792 431.188 42.25 429.688 41.375C428.229 40.5 426.333 40.0625 424 40.0625C422 40.0625 420.271 40.4167 418.812 41.125C417.354 41.7917 416.229 42.7708 415.438 44.0625C414.646 45.3125 414.25 46.7917 414.25 48.5H396.25C396.25 45.625 396.917 42.8958 398.25 40.3125C399.583 37.7292 401.521 35.4583 404.062 33.5C406.604 31.5 409.625 29.9375 413.125 28.8125C416.667 27.6875 420.625 27.125 425 27.125C430.25 27.125 434.917 28 439 29.75C443.083 31.5 446.292 34.125 448.625 37.625C451 41.125 452.188 45.5 452.188 50.75V79.6875C452.188 83.3958 452.417 86.4375 452.875 88.8125C453.333 91.1458 454 93.1875 454.875 94.9375V96H436.688C435.812 94.1667 435.146 91.875 434.688 89.125C434.271 86.3333 434.062 83.5417 434.062 80.75ZM436.438 54.8125L436.562 65H426.5C424.125 65 422.062 65.2708 420.312 65.8125C418.562 66.3542 417.125 67.125 416 68.125C414.875 69.0833 414.042 70.2083 413.5 71.5C413 72.7917 412.75 74.2083 412.75 75.75C412.75 77.2917 413.104 78.6875 413.812 79.9375C414.521 81.1458 415.542 82.1042 416.875 82.8125C418.208 83.4792 419.771 83.8125 421.562 83.8125C424.271 83.8125 426.625 83.2708 428.625 82.1875C430.625 81.1042 432.167 79.7708 433.25 78.1875C434.375 76.6042 434.958 75.1042 435 73.6875L439.75 81.3125C439.083 83.0208 438.167 84.7917 437 86.625C435.875 88.4583 434.438 90.1875 432.688 91.8125C430.938 93.3958 428.833 94.7083 426.375 95.75C423.917 96.75 421 97.25 417.625 97.25C413.333 97.25 409.438 96.3958 405.938 94.6875C402.479 92.9375 399.729 90.5417 397.688 87.5C395.688 84.4167 394.688 80.9167 394.688 77C394.688 73.4583 395.354 70.3125 396.688 67.5625C398.021 64.8125 399.979 62.5 402.562 60.625C405.188 58.7083 408.458 57.2708 412.375 56.3125C416.292 55.3125 420.833 54.8125 426 54.8125H436.438ZM502.625 77.3125C502.625 76.0208 502.25 74.8542 501.5 73.8125C500.75 72.7708 499.354 71.8125 497.312 70.9375C495.312 70.0208 492.417 69.1875 488.625 68.4375C485.208 67.6875 482.021 66.75 479.062 65.625C476.146 64.4583 473.604 63.0625 471.438 61.4375C469.312 59.8125 467.646 57.8958 466.438 55.6875C465.229 53.4375 464.625 50.875 464.625 48C464.625 45.1667 465.229 42.5 466.438 40C467.688 37.5 469.458 35.2917 471.75 33.375C474.083 31.4167 476.917 29.8958 480.25 28.8125C483.625 27.6875 487.417 27.125 491.625 27.125C497.5 27.125 502.542 28.0625 506.75 29.9375C511 31.8125 514.25 34.3958 516.5 37.6875C518.792 40.9375 519.938 44.6458 519.938 48.8125H501.938C501.938 47.0625 501.562 45.5 500.812 44.125C500.104 42.7083 498.979 41.6042 497.438 40.8125C495.938 39.9792 493.979 39.5625 491.562 39.5625C489.562 39.5625 487.833 39.9167 486.375 40.625C484.917 41.2917 483.792 42.2083 483 43.375C482.25 44.5 481.875 45.75 481.875 47.125C481.875 48.1667 482.083 49.1042 482.5 49.9375C482.958 50.7292 483.688 51.4583 484.688 52.125C485.688 52.7917 486.979 53.4167 488.562 54C490.188 54.5417 492.188 55.0417 494.562 55.5C499.438 56.5 503.792 57.8125 507.625 59.4375C511.458 61.0208 514.5 63.1875 516.75 65.9375C519 68.6458 520.125 72.2083 520.125 76.625C520.125 79.625 519.458 82.375 518.125 84.875C516.792 87.375 514.875 89.5625 512.375 91.4375C509.875 93.2708 506.875 94.7083 503.375 95.75C499.917 96.75 496.021 97.25 491.688 97.25C485.396 97.25 480.062 96.125 475.688 93.875C471.354 91.625 468.062 88.7708 465.812 85.3125C463.604 81.8125 462.5 78.2292 462.5 74.5625H479.562C479.646 77.0208 480.271 79 481.438 80.5C482.646 82 484.167 83.0833 486 83.75C487.875 84.4167 489.896 84.75 492.062 84.75C494.396 84.75 496.333 84.4375 497.875 83.8125C499.417 83.1458 500.583 82.2708 501.375 81.1875C502.208 80.0625 502.625 78.7708 502.625 77.3125ZM564.938 28.375V41.125H525.562V28.375H564.938ZM535.312 11.6875H553.312V75.625C553.312 77.5833 553.562 79.0833 554.062 80.125C554.604 81.1667 555.396 81.8958 556.438 82.3125C557.479 82.6875 558.792 82.875 560.375 82.875C561.5 82.875 562.5 82.8333 563.375 82.75C564.292 82.625 565.062 82.5 565.688 82.375L565.75 95.625C564.208 96.125 562.542 96.5208 560.75 96.8125C558.958 97.1042 556.979 97.25 554.812 97.25C550.854 97.25 547.396 96.6042 544.438 95.3125C541.521 93.9792 539.271 91.8542 537.688 88.9375C536.104 86.0208 535.312 82.1875 535.312 77.4375V11.6875ZM606.312 97.25C601.062 97.25 596.354 96.4167 592.188 94.75C588.021 93.0417 584.479 90.6875 581.562 87.6875C578.688 84.6875 576.479 81.2083 574.938 77.25C573.396 73.25 572.625 69 572.625 64.5V62C572.625 56.875 573.354 52.1875 574.812 47.9375C576.271 43.6875 578.354 40 581.062 36.875C583.812 33.75 587.146 31.3542 591.062 29.6875C594.979 27.9792 599.396 27.125 604.312 27.125C609.104 27.125 613.354 27.9167 617.062 29.5C620.771 31.0833 623.875 33.3333 626.375 36.25C628.917 39.1667 630.833 42.6667 632.125 46.75C633.417 50.7917 634.062 55.2917 634.062 60.25V67.75H580.312V55.75H616.375V54.375C616.375 51.875 615.917 49.6458 615 47.6875C614.125 45.6875 612.792 44.1042 611 42.9375C609.208 41.7708 606.917 41.1875 604.125 41.1875C601.75 41.1875 599.708 41.7083 598 42.75C596.292 43.7917 594.896 45.25 593.812 47.125C592.771 49 591.979 51.2083 591.438 53.75C590.938 56.25 590.688 59 590.688 62V64.5C590.688 67.2083 591.062 69.7083 591.812 72C592.604 74.2917 593.708 76.2708 595.125 77.9375C596.583 79.6042 598.333 80.8958 600.375 81.8125C602.458 82.7292 604.812 83.1875 607.438 83.1875C610.688 83.1875 613.708 82.5625 616.5 81.3125C619.333 80.0208 621.771 78.0833 623.812 75.5L632.562 85C631.146 87.0417 629.208 89 626.75 90.875C624.333 92.75 621.417 94.2917 618 95.5C614.583 96.6667 610.688 97.25 606.312 97.25ZM662.312 43.125V96H644.312V28.375H661.25L662.312 43.125ZM682.688 27.9375L682.375 44.625C681.5 44.5 680.438 44.3958 679.188 44.3125C677.979 44.1875 676.875 44.125 675.875 44.125C673.333 44.125 671.125 44.4583 669.25 45.125C667.417 45.75 665.875 46.6875 664.625 47.9375C663.417 49.1875 662.5 50.7083 661.875 52.5C661.292 54.2917 660.958 56.3333 660.875 58.625L657.25 57.5C657.25 53.125 657.688 49.1042 658.562 45.4375C659.438 41.7292 660.708 38.5 662.375 35.75C664.083 33 666.167 30.875 668.625 29.375C671.083 27.875 673.896 27.125 677.062 27.125C678.062 27.125 679.083 27.2083 680.125 27.375C681.167 27.5 682.021 27.6875 682.688 27.9375Z" fill="black"/>
<g clip-path="url(#clip1_19_151)">
<path d="M98.2869 35.7701C94.4375 39.6361 92.737 44.343 93.8097 48.7104C94.5314 51.6176 96.5307 54.2128 99.5403 55.9642C100.338 56.4312 101.211 56.8403 102.158 57.1915C102.141 56.9922 102.132 56.7847 102.132 56.5688C102.128 55.2739 102.391 54.0461 102.861 52.9268C102.42 52.7347 102.021 52.5344 101.655 52.3176C99.4771 51.05 98.3522 49.4615 97.9159 47.7171C97.0547 44.2235 99.1542 39.4189 105.04 35.8506L102.84 32.2272C101.099 33.2842 99.5766 34.477 98.2869 35.7701V35.7701ZM120.054 32.2714L117.872 35.8846C123.775 39.4865 125.905 44.2984 125.059 47.7907C124.633 49.5327 123.516 51.1151 121.345 52.371C120.98 52.5858 120.582 52.7839 120.168 52.9654C120.644 54.0873 120.905 55.3248 120.908 56.6197C120.909 56.8356 120.909 57.0348 120.885 57.2422C121.822 56.8878 122.684 56.4917 123.48 56.0291C126.48 54.294 128.465 51.7096 129.171 48.8063C130.575 42.9913 127.038 36.5237 120.054 32.2714V32.2714ZM106.359 51.4255C105.043 52.7418 104.226 54.5574 104.24 56.5746C104.251 60.6087 107.514 63.8549 111.54 63.8741C115.566 63.8767 118.802 60.6399 118.8 56.614C118.789 52.5798 115.526 49.3337 111.5 49.3145C109.483 49.3007 107.667 50.1176 106.359 51.4255V51.4255ZM108.116 53.1818C108.985 52.3125 110.187 51.7763 111.499 51.7798C114.146 51.7787 116.327 53.9594 116.334 56.599C116.342 59.2553 114.173 61.4076 111.533 61.4004C108.893 61.3933 106.713 59.2292 106.705 56.5729C106.694 55.2531 107.246 54.051 108.116 53.1818V53.1818ZM109.606 54.6716C109.117 55.1601 108.828 55.8316 108.822 56.587C108.818 58.0894 110.016 59.2879 111.527 59.292C113.021 59.2961 114.222 58.0957 114.218 56.6016C114.214 55.0909 113.015 53.8923 111.513 53.8965C110.766 53.8945 110.094 54.1832 109.606 54.6716V54.6716ZM105.072 63.3834L105.097 72.4313L112.351 72.4509L118.021 72.458L117.988 63.4184C116.307 65.0159 114.036 65.9892 111.545 65.9825C109.039 65.9757 106.761 64.99 105.072 63.3834ZM100.329 77.2153L104.38 79.9232L118.772 79.9639L122.807 77.2771L118.757 74.5684L104.372 74.5377L100.329 77.2153ZM100.349 84.7367L104.409 87.4512L118.784 87.4927L122.827 84.7976L118.777 82.0889L104.393 82.0408L100.349 84.7367ZM105.16 89.5641L110.553 94.9576L110.543 89.5746L105.16 89.5641ZM112.664 89.5845L112.678 94.9634L118.041 89.6007L112.664 89.5845Z" fill="black"/>
</g>
<path fill-rule="evenodd" clip-rule="evenodd" d="M111 22C117.075 22 122 17.0751 122 11C122 4.92487 117.075 0 111 0C104.925 0 100 4.92487 100 11C100 17.0751 104.925 22 111 22ZM111 20C115.971 20 120 15.9706 120 11C120 6.02944 115.971 2 111 2C106.029 2 102 6.02944 102 11C102 15.9706 106.029 20 111 20Z" fill="black"/>
</g>
<defs>
<clipPath id="clip0_19_151">
<rect width="688" height="103" fill="white"/>
</clipPath>
<clipPath id="clip1_19_151">
<rect width="59.9411" height="60.267" fill="white" transform="translate(69 56.3848) rotate(-45)"/>
</clipPath>
</defs>
</svg>
