<svg width="154" height="140" viewBox="0 0 154 140" fill="none" xmlns="http://www.w3.org/2000/svg">
<rect width="140" height="140" rx="10" fill="#EEEEEE"/>
<g clip-path="url(#clip0_19_169)">
<path d="M98.2869 56.7701C94.4375 60.6361 92.737 65.343 93.8097 69.7104C94.5314 72.6176 96.5307 75.2128 99.5403 76.9642C100.338 77.4312 101.211 77.8403 102.158 78.1915C102.141 77.9922 102.132 77.7847 102.132 77.5688C102.128 76.2739 102.391 75.0461 102.861 73.9268C102.42 73.7347 102.021 73.5344 101.655 73.3176C99.4771 72.05 98.3522 70.4615 97.9159 68.7171C97.0547 65.2235 99.1542 60.4189 105.04 56.8506L102.84 53.2272C101.099 54.2842 99.5766 55.477 98.2869 56.7701V56.7701ZM120.054 53.2714L117.872 56.8846C123.775 60.4865 125.905 65.2984 125.059 68.7907C124.633 70.5327 123.516 72.1151 121.345 73.371C120.98 73.5858 120.582 73.7839 120.168 73.9654C120.644 75.0873 120.905 76.3248 120.908 77.6197C120.909 77.8356 120.909 78.0348 120.885 78.2422C121.822 77.8878 122.684 77.4917 123.48 77.0291C126.48 75.294 128.465 72.7096 129.171 69.8063C130.575 63.9913 127.038 57.5237 120.054 53.2714V53.2714ZM106.359 72.4255C105.043 73.7418 104.226 75.5574 104.24 77.5746C104.251 81.6087 107.514 84.8549 111.54 84.8741C115.566 84.8767 118.802 81.6399 118.8 77.614C118.789 73.5798 115.526 70.3337 111.5 70.3145C109.483 70.3007 107.667 71.1176 106.359 72.4255V72.4255ZM108.116 74.1818C108.985 73.3125 110.187 72.7763 111.499 72.7798C114.146 72.7787 116.327 74.9594 116.334 77.599C116.342 80.2553 114.173 82.4076 111.533 82.4004C108.893 82.3933 106.713 80.2292 106.705 77.5729C106.694 76.2531 107.246 75.051 108.116 74.1818V74.1818ZM109.606 75.6716C109.117 76.1601 108.828 76.8316 108.822 77.587C108.818 79.0894 110.016 80.2879 111.527 80.292C113.021 80.2961 114.222 79.0957 114.218 77.6016C114.214 76.0909 113.015 74.8923 111.513 74.8965C110.766 74.8945 110.094 75.1832 109.606 75.6716V75.6716ZM105.072 84.3834L105.097 93.4313L112.351 93.4509L118.021 93.458L117.988 84.4184C116.307 86.0159 114.036 86.9892 111.545 86.9825C109.039 86.9757 106.761 85.99 105.072 84.3834ZM100.329 98.2153L104.38 100.923L118.772 100.964L122.807 98.2771L118.757 95.5684L104.372 95.5377L100.329 98.2153ZM100.349 105.737L104.409 108.451L118.784 108.493L122.827 105.798L118.777 103.089L104.393 103.041L100.349 105.737ZM105.16 110.564L110.553 115.958L110.543 110.575L105.16 110.564ZM112.664 110.584L112.678 115.963L118.041 110.601L112.664 110.584Z" fill="#00ADB5"/>
</g>
<path fill-rule="evenodd" clip-rule="evenodd" d="M111 43C117.075 43 122 38.0751 122 32C122 25.9249 117.075 21 111 21C104.925 21 100 25.9249 100 32C100 38.0751 104.925 43 111 43ZM111 41C115.971 41 120 36.9706 120 32C120 27.0294 115.971 23 111 23C106.029 23 102 27.0294 102 32C102 36.9706 106.029 41 111 41Z" fill="#00ADB5"/>
<path d="M85.3711 27.1875H19.6289C17.9177 27.1875 16.5352 28.57 16.5352 30.2812V94.0898C16.5352 95.8011 17.9177 97.1836 19.6289 97.1836H85.3711C87.0823 97.1836 88.4648 95.8011 88.4648 94.0898V30.2812C88.4648 28.57 87.0823 27.1875 85.3711 27.1875ZM32.0039 52.7109C32.0039 49.5108 34.6046 46.9102 37.8047 46.9102C41.0048 46.9102 43.6055 49.5108 43.6055 52.7109C43.6055 55.911 41.0048 58.5117 37.8047 58.5117C34.6046 58.5117 32.0039 55.911 32.0039 52.7109ZM67.9688 76.6875C67.9688 77.1129 67.6207 77.4609 67.1953 77.4609H37.8047C37.3793 77.4609 37.0312 77.1129 37.0312 76.6875V70.8867C37.0312 70.4613 37.3793 70.1133 37.8047 70.1133H67.1953C67.6207 70.1133 67.9688 70.4613 67.9688 70.8867V76.6875ZM67.1953 58.5117C63.9952 58.5117 61.3945 55.911 61.3945 52.7109C61.3945 49.5108 63.9952 46.9102 67.1953 46.9102C70.3954 46.9102 72.9961 49.5108 72.9961 52.7109C72.9961 55.911 70.3954 58.5117 67.1953 58.5117ZM80.2471 104.531H24.7529C23.4187 104.531 22.3359 105.914 22.3359 107.625V113.039C22.3359 113.464 22.6066 113.812 22.9354 113.812H82.055C82.3837 113.812 82.6544 113.464 82.6544 113.039V107.625C82.6641 105.914 81.5813 104.531 80.2471 104.531V104.531Z" fill="#00ADB5"/>
<defs>
<clipPath id="clip0_19_169">
<rect width="59.9411" height="60.267" fill="white" transform="translate(69 77.3848) rotate(-45)"/>
</clipPath>
</defs>
</svg>
