<svg width="90" height="107" viewBox="0 0 90 107" fill="none" xmlns="http://www.w3.org/2000/svg">
<g clip-path="url(#clip0_83_201)">
<path d="M15 77.4688C6.97266 77.4688 0.46875 83.9727 0.46875 92C0.46875 100.027 6.97266 106.531 15 106.531C23.0273 106.531 29.5312 100.027 29.5312 92C29.5312 83.9727 23.0273 77.4688 15 77.4688Z" fill="black"/>
<path d="M75 77.4688C66.9727 77.4688 60.4688 83.9727 60.4688 92C60.4688 100.027 66.9727 106.531 75 106.531C83.0273 106.531 89.5312 100.027 89.5312 92C89.5312 83.9727 83.0273 77.4688 75 77.4688Z" fill="black"/>
<path d="M45 77.4688C36.9727 77.4688 30.4688 83.9727 30.4688 92C30.4688 100.027 36.9727 106.531 45 106.531C53.0273 106.531 59.5312 100.027 59.5312 92C59.5312 83.9727 53.0273 77.4688 45 77.4688ZM45 103.719C38.5254 103.719 33.2812 98.4746 33.2812 92C33.2812 85.5254 38.5254 80.2812 45 80.2812C51.4746 80.2812 56.7188 85.5254 56.7188 92C56.7188 98.4746 51.4746 103.719 45 103.719Z" fill="black"/>
<path d="M18.3937 46.334C19.051 46.062 19.731 45.756 20.4337 45.416C21.159 45.0533 21.8617 44.668 22.5417 44.26C23.2217 43.8293 23.8677 43.3873 24.4797 42.934C25.1143 42.458 25.681 41.9593 26.1797 41.438H29.7157V65H24.6497V48.034C23.9697 48.4873 23.2103 48.9067 22.3717 49.292C21.533 49.6547 20.717 49.972 19.9237 50.244L18.3937 46.334ZM53.4939 53.168C53.4939 57.1347 52.7346 60.1833 51.2159 62.314C49.7199 64.422 47.6459 65.476 44.9939 65.476C42.3419 65.476 40.2566 64.422 38.7379 62.314C37.2419 60.1833 36.4939 57.1347 36.4939 53.168C36.4939 51.196 36.6866 49.4507 37.0719 47.932C37.4799 46.4133 38.0579 45.1327 38.8059 44.09C39.5539 43.0473 40.4492 42.254 41.4919 41.71C42.5346 41.166 43.7019 40.894 44.9939 40.894C47.6459 40.894 49.7199 41.9593 51.2159 44.09C52.7346 46.198 53.4939 49.224 53.4939 53.168ZM48.3259 53.168C48.3259 51.9893 48.2692 50.924 48.1559 49.972C48.0426 48.9973 47.8612 48.1587 47.6119 47.456C47.3626 46.7533 47.0226 46.2093 46.5919 45.824C46.1612 45.4387 45.6286 45.246 44.9939 45.246C44.3592 45.246 43.8266 45.4387 43.3959 45.824C42.9879 46.2093 42.6479 46.7533 42.3759 47.456C42.1266 48.1587 41.9452 48.9973 41.8319 49.972C41.7186 50.924 41.6619 51.9893 41.6619 53.168C41.6619 54.3467 41.7186 55.4233 41.8319 56.398C41.9452 57.3727 42.1266 58.2113 42.3759 58.914C42.6479 59.6167 42.9879 60.1607 43.3959 60.546C43.8266 60.9313 44.3592 61.124 44.9939 61.124C45.6286 61.124 46.1612 60.9313 46.5919 60.546C47.0226 60.1607 47.3626 59.6167 47.6119 58.914C47.8612 58.2113 48.0426 57.3727 48.1559 56.398C48.2692 55.4233 48.3259 54.3467 48.3259 53.168ZM57.0421 46.334C57.6994 46.062 58.3794 45.756 59.0821 45.416C59.8074 45.0533 60.5101 44.668 61.1901 44.26C61.8701 43.8293 62.5161 43.3873 63.1281 42.934C63.7628 42.458 64.3294 41.9593 64.8281 41.438H68.3641V65H63.2981V48.034C62.6181 48.4873 61.8588 48.9067 61.0201 49.292C60.1814 49.6547 59.3654 49.972 58.5721 50.244L57.0421 46.334Z" fill="black"/>
<path d="M47.5779 17.064C47.5779 16.4067 47.4306 15.8287 47.1359 15.33C46.8412 14.8087 46.3312 14.378 45.6059 14.038C44.8806 13.698 43.9059 13.4373 42.6819 13.256C41.4579 13.0747 39.9166 12.984 38.0579 12.984C38.3072 10.876 38.5112 8.734 38.6699 6.558C38.8286 4.382 38.9532 2.342 39.0439 0.437999H51.7939V4.688H43.2939C43.2486 5.504 43.1919 6.29733 43.1239 7.068C43.0786 7.816 43.0219 8.47333 42.9539 9.04C46.2632 9.26667 48.6999 10.0487 50.2639 11.386C51.8506 12.7007 52.6439 14.5367 52.6439 16.894C52.6439 17.982 52.4512 18.9907 52.0659 19.92C51.6806 20.8493 51.1026 21.654 50.3319 22.334C49.5612 23.014 48.5866 23.5467 47.4079 23.932C46.2519 24.3173 44.8919 24.51 43.3279 24.51C42.7159 24.51 42.0699 24.4647 41.3899 24.374C40.7326 24.306 40.0866 24.204 39.4519 24.068C38.8399 23.9547 38.2846 23.83 37.7859 23.694C37.2872 23.558 36.9019 23.422 36.6299 23.286L37.5479 19.104C38.1146 19.3533 38.8626 19.6027 39.7919 19.852C40.7212 20.0787 41.8319 20.192 43.1239 20.192C44.6879 20.192 45.8212 19.886 46.5239 19.274C47.2266 18.6393 47.5779 17.9027 47.5779 17.064Z" fill="black"/>
</g>
<defs>
<clipPath id="clip0_83_201">
<rect width="90" height="107" fill="white"/>
</clipPath>
</defs>
</svg>
