<svg width="30" height="30" viewBox="0 0 30 30" fill="none" xmlns="http://www.w3.org/2000/svg">
<path fill-rule="evenodd" clip-rule="evenodd" d="M5.835 9.585C5.68993 9.95629 5.58313 10.3414 5.51625 10.7344C2.37375 11.4281 0 14.1656 0 17.4712C0 21.3112 3.2025 24.375 7.08937 24.375H20.625L18.75 22.5H7.08937C4.18312 22.5 1.875 20.2219 1.875 17.4712C1.875 14.9119 3.87 12.7594 6.4875 12.4725L7.32375 12.3788V11.5406C7.32375 11.4 7.335 11.2556 7.3575 11.1075L5.835 9.585V9.585ZM10.6163 6.86625L9.25687 5.50688C10.9551 4.36566 12.9539 3.75421 15 3.75C20.0438 3.75 24.2306 7.5 24.6863 12.3356C27.6713 12.7575 30 15.2569 30 18.3244C29.9968 19.3433 29.7342 20.3446 29.2368 21.2339C28.7395 22.1233 28.0239 22.8713 27.1575 23.4075L25.7831 22.0331C27.1838 21.3338 28.125 19.9237 28.125 18.3244C28.125 16.0444 26.2125 14.1469 23.7881 14.1469H22.8506V13.2094C22.8525 9.04688 19.365 5.625 15 5.625C13.3594 5.625 11.8537 6.1125 10.6144 6.86438L10.6163 6.86625Z" fill="white"/>
<path d="M25.5862 26.9137L3.08624 4.41368L4.41374 3.08618L26.9137 25.5862L25.5881 26.9118L25.5862 26.9137Z" fill="white"/>
</svg>
