<svg width="93" height="90" viewBox="0 0 93 90" fill="none" xmlns="http://www.w3.org/2000/svg">
<g clip-path="url(#clip0_78_173)">
<path d="M15 0.46875C6.97266 0.46875 0.46875 6.97266 0.46875 15C0.46875 23.0273 6.97266 29.5312 15 29.5312C23.0273 29.5312 29.5312 23.0273 29.5312 15C29.5312 6.97266 23.0273 0.46875 15 0.46875Z" fill="black"/>
<path d="M34.3696 30C25.9932 30 19.2065 36.7137 19.2065 45C19.2065 53.2863 25.9932 60 34.3696 60C42.7459 60 49.5326 53.2863 49.5326 45C49.5326 36.7137 42.7459 30 34.3696 30ZM34.3696 57.0968C27.6135 57.0968 22.1413 51.6835 22.1413 45C22.1413 38.3165 27.6135 32.9032 34.3696 32.9032C41.1257 32.9032 46.5978 38.3165 46.5978 45C46.5978 51.6835 41.1257 57.0968 34.3696 57.0968Z" fill="black"/>
<path d="M15 60.4688C6.97266 60.4688 0.46875 66.9727 0.46875 75C0.46875 83.0273 6.97266 89.5312 15 89.5312C23.0273 89.5312 29.5312 83.0273 29.5312 75C29.5312 66.9727 23.0273 60.4688 15 60.4688Z" fill="black"/>
<g clip-path="url(#clip1_78_173)">
<path d="M47.8658 56.1526C51.2195 59.492 55.2958 60.9743 59.0718 60.0565C61.5854 59.4389 63.826 57.7153 65.3342 55.1156C65.7363 54.4261 66.0882 53.6721 66.3898 52.8534C66.2175 52.8678 66.038 52.8749 65.8512 52.8749C64.7309 52.8749 63.668 52.6451 62.6985 52.2358C62.5334 52.6164 62.361 52.9611 62.1743 53.2771C61.0827 55.1587 59.711 56.1282 58.2029 56.5016C55.1823 57.2384 51.0206 55.4107 47.9196 50.3104L44.7899 52.2049C45.7084 53.7137 46.744 55.0337 47.8658 56.1526V56.1526ZM44.7877 37.3125L47.9189 39.2084C51.0213 34.1095 55.1794 32.2782 58.2029 33.0179C59.711 33.3914 61.0827 34.3609 62.1743 36.2425C62.361 36.5584 62.5334 36.9032 62.6913 37.2622C63.6609 36.8529 64.7309 36.6303 65.8512 36.6303C66.038 36.6303 66.2103 36.6303 66.3898 36.6518C66.081 35.8403 65.7363 35.0934 65.3342 34.404C63.826 31.8043 61.5854 30.0807 59.0718 29.4631C54.0376 28.235 48.4503 31.28 44.7877 37.3125V37.3125ZM61.3915 49.2052C62.5334 50.347 64.1061 51.058 65.8512 51.0508C69.3415 51.0508 72.1423 48.2357 72.1495 44.7526C72.1423 41.2695 69.3343 38.4616 65.8512 38.4544C62.361 38.4544 59.5602 41.2695 59.553 44.7526C59.5458 46.4977 60.2568 48.0705 61.3915 49.2052V49.2052ZM62.9068 47.6899C62.1527 46.9358 61.6859 45.8945 61.6859 44.7598C61.6787 42.4689 63.5603 40.5873 65.8441 40.5873C68.1421 40.5873 70.0094 42.4689 70.0094 44.7526C70.0094 47.0363 68.1421 48.9179 65.8441 48.9179C64.7022 48.9251 63.6609 48.4439 62.9068 47.6899V47.6899ZM64.1923 46.4044C64.616 46.8281 65.1977 47.0794 65.8512 47.0866C67.1511 47.0938 68.1852 46.0596 68.1852 44.7526C68.1852 43.4599 67.1439 42.4186 65.8512 42.4186C64.5442 42.4186 63.51 43.4527 63.5172 44.7526C63.5172 45.3989 63.7686 45.9806 64.1923 46.4044V46.4044ZM71.7401 50.347L79.568 50.347L79.568 44.0703L79.5608 39.1653L71.7401 39.1725C73.1261 40.6304 73.9736 42.5981 73.9736 44.7526C73.9736 46.9214 73.1261 48.8892 71.7401 50.347ZM83.7182 54.4829L86.0515 50.9847L86.0529 38.5334L83.7189 35.036L81.3849 38.5334L81.3921 50.979L83.7182 54.4829ZM90.2254 54.4836L92.5645 50.9768L92.5666 38.5406L90.2254 35.036L87.8914 38.5334L87.8835 50.9783L90.2254 54.4836ZM94.3907 50.3327L99.0444 45.679L94.3871 45.6754L94.3907 50.3327ZM94.3907 43.8405L99.0444 43.8405L94.3922 39.1883L94.3907 43.8405Z" fill="black"/>
</g>
</g>
<defs>
<clipPath id="clip0_78_173">
<rect width="93" height="90" fill="white"/>
</clipPath>
<clipPath id="clip1_78_173">
<rect width="52" height="52" fill="white" transform="translate(65.7695 81.5391) rotate(-135)"/>
</clipPath>
</defs>
</svg>
