<?xml version="1.0" standalone="no"?>
<!DOCTYPE svg PUBLIC "-//W3C//DTD SVG 20010904//EN"
 "http://www.w3.org/TR/2001/REC-SVG-20010904/DTD/svg10.dtd">
<svg version="1.0" xmlns="http://www.w3.org/2000/svg"
 width="154.000000pt" height="154.000000pt" viewBox="0 0 154.000000 154.000000"
 preserveAspectRatio="xMidYMid meet">
<metadata>
Created by potrace 1.14, written by Peter Selinger 2001-2017
</metadata>
<g transform="translate(0.000000,154.000000) scale(0.100000,-0.100000)"
fill="#000000" stroke="none">
<path d="M34 1436 l-34 -34 0 -632 0 -632 34 -34 34 -34 632 0 632 0 34 34 34
34 0 632 0 632 -34 34 -34 34 -632 0 -632 0 -34 -34z m1126 -191 c32 -17 60
-61 60 -95 0 -53 -57 -110 -110 -110 -53 0 -110 57 -110 110 0 33 28 78 58 94
35 20 66 20 102 1z m-292 -53 c9 -7 12 -83 10 -348 l-3 -339 -350 0 -350 0 -3
339 c-2 265 1 341 10 348 17 10 669 10 686 0z m169 -273 c8 -8 2 -20 -23 -45
-41 -41 -46 -92 -13 -125 11 -11 19 -30 17 -42 -3 -21 -6 -20 -41 15 -55 53
-51 114 11 181 29 30 33 32 49 16z m205 -16 c36 -39 48 -66 48 -108 0 -29 -8
-44 -37 -73 -37 -36 -38 -36 -41 -14 -2 16 4 29 17 39 39 26 22 103 -31 141
-15 11 -16 17 -7 28 16 19 22 18 51 -13z m-69 -175 c18 -24 19 -30 7 -58 -24
-58 -103 -61 -129 -4 -15 33 -14 37 10 68 29 36 83 33 112 -6z m-58 -128 c14
0 35 5 46 10 17 10 19 7 19 -30 l0 -40 -65 0 -65 0 0 40 c0 37 2 40 19 30 11
-5 32 -10 46 -10z m94 -104 c19 -23 -17 -36 -96 -36 -73 1 -112 17 -91 38 18
18 172 16 187 -2z m-3 -71 c16 -13 17 -16 4 -25 -24 -16 -175 -13 -189 4 -19
23 14 35 95 36 47 0 77 -5 90 -15z m-386 -50 l0 -45 -295 0 -295 0 0 45 0 45
295 0 295 0 0 -45z m280 -35 c0 -11 -2 -20 -3 -20 -2 0 -12 9 -22 20 -18 19
-17 20 3 20 15 0 22 -6 22 -20z m70 17 c0 -2 -9 -12 -20 -22 -19 -18 -20 -17
-20 3 0 15 6 22 20 22 11 0 20 -2 20 -3z"/>
<path d="M1049 1211 c-20 -20 -29 -39 -29 -61 0 -43 47 -90 90 -90 43 0 90 47
90 90 0 22 -9 41 -29 61 -40 39 -82 39 -122 0z"/>
<path d="M337 982 c-45 -50 13 -124 69 -88 31 21 39 52 20 81 -20 30 -65 33
-89 7z"/>
<path d="M624 975 c-21 -32 -7 -69 30 -87 35 -15 76 12 76 51 0 58 -75 84
-106 36z"/>
<path d="M370 730 l0 -40 155 0 155 0 0 40 0 40 -155 0 -155 0 0 -40z"/>
<path d="M1082 728 c-33 -33 7 -95 51 -79 29 11 39 44 21 70 -17 23 -53 28
-72 9z m56 -31 c4 -20 -25 -34 -40 -19 -15 15 -1 44 19 40 10 -2 19 -11 21
-21z"/>
</g>
</svg>
