<svg width="120" height="69" viewBox="0 0 120 69" fill="none" xmlns="http://www.w3.org/2000/svg">
<g clip-path="url(#clip0_95_140)">
<path d="M75 39.4688C66.9727 39.4688 60.4688 45.9727 60.4688 54C60.4688 62.0273 66.9727 68.5312 75 68.5312C83.0273 68.5312 89.5312 62.0273 89.5312 54C89.5312 45.9727 83.0273 39.4688 75 39.4688Z" fill="black"/>
<path d="M45 39.4688C36.9727 39.4688 30.4688 45.9727 30.4688 54C30.4688 62.0273 36.9727 68.5312 45 68.5312C53.0273 68.5312 59.5312 62.0273 59.5312 54C59.5312 45.9727 53.0273 39.4688 45 39.4688Z" fill="black"/>
<path d="M15 39.4688C6.97266 39.4688 0.46875 45.9727 0.46875 54C0.46875 62.0273 6.97266 68.5312 15 68.5312C23.0273 68.5312 29.5312 62.0273 29.5312 54C29.5312 45.9727 23.0273 39.4688 15 39.4688ZM15 65.7188C8.52539 65.7188 3.28125 60.4746 3.28125 54C3.28125 47.5254 8.52539 42.2812 15 42.2812C21.4746 42.2812 26.7188 47.5254 26.7188 54C26.7188 60.4746 21.4746 65.7188 15 65.7188Z" fill="black"/>
<path d="M105 39.4688C96.9727 39.4688 90.4688 45.9727 90.4688 54C90.4688 62.0273 96.9727 68.5312 105 68.5312C113.027 68.5312 119.531 62.0273 119.531 54C119.531 45.9727 113.027 39.4688 105 39.4688ZM105 65.7188C98.5254 65.7188 93.2812 60.4746 93.2812 54C93.2812 47.5254 98.5254 42.2812 105 42.2812C111.475 42.2812 116.719 47.5254 116.719 54C116.719 60.4746 111.475 65.7188 105 65.7188Z" fill="black"/>
<path d="M31.0695 18.296C31.0695 23.896 29.9975 28.2 27.8535 31.208C25.7415 34.184 22.8135 35.672 19.0695 35.672C15.3255 35.672 12.3815 34.184 10.2375 31.208C8.1255 28.2 7.0695 23.896 7.0695 18.296C7.0695 15.512 7.3415 13.048 7.8855 10.904C8.4615 8.76 9.2775 6.952 10.3335 5.48C11.3895 4.008 12.6535 2.888 14.1255 2.12C15.5975 1.352 17.2455 0.967998 19.0695 0.967998C22.8135 0.967998 25.7415 2.472 27.8535 5.48C29.9975 8.456 31.0695 12.728 31.0695 18.296ZM23.7735 18.296C23.7735 16.632 23.6935 15.128 23.5335 13.784C23.3735 12.408 23.1175 11.224 22.7655 10.232C22.4135 9.24 21.9335 8.472 21.3255 7.928C20.7175 7.384 19.9655 7.112 19.0695 7.112C18.1735 7.112 17.4215 7.384 16.8135 7.928C16.2375 8.472 15.7575 9.24 15.3735 10.232C15.0215 11.224 14.7655 12.408 14.6055 13.784C14.4455 15.128 14.3655 16.632 14.3655 18.296C14.3655 19.96 14.4455 21.48 14.6055 22.856C14.7655 24.232 15.0215 25.416 15.3735 26.408C15.7575 27.4 16.2375 28.168 16.8135 28.712C17.4215 29.256 18.1735 29.528 19.0695 29.528C19.9655 29.528 20.7175 29.256 21.3255 28.712C21.9335 28.168 22.4135 27.4 22.7655 26.408C23.1175 25.416 23.3735 24.232 23.5335 22.856C23.6935 21.48 23.7735 19.96 23.7735 18.296ZM36.0788 8.648C37.0068 8.264 37.9668 7.832 38.9588 7.352C39.9828 6.84 40.9748 6.296 41.9348 5.72C42.8948 5.112 43.8068 4.488 44.6708 3.848C45.5668 3.176 46.3668 2.472 47.0708 1.736H52.0628V35H44.9108V11.048C43.9508 11.688 42.8788 12.28 41.6948 12.824C40.5108 13.336 39.3588 13.784 38.2388 14.168L36.0788 8.648ZM63.36 8.648C64.288 8.264 65.248 7.832 66.24 7.352C67.264 6.84 68.256 6.296 69.216 5.72C70.176 5.112 71.088 4.488 71.952 3.848C72.848 3.176 73.648 2.472 74.352 1.736H79.344V35H72.192V11.048C71.232 11.688 70.16 12.28 68.976 12.824C67.792 13.336 66.64 13.784 65.52 14.168L63.36 8.648ZM112.913 18.296C112.913 23.896 111.841 28.2 109.697 31.208C107.585 34.184 104.657 35.672 100.913 35.672C97.1693 35.672 94.2253 34.184 92.0813 31.208C89.9693 28.2 88.9133 23.896 88.9133 18.296C88.9133 15.512 89.1853 13.048 89.7293 10.904C90.3053 8.76 91.1213 6.952 92.1773 5.48C93.2333 4.008 94.4973 2.888 95.9693 2.12C97.4413 1.352 99.0893 0.967998 100.913 0.967998C104.657 0.967998 107.585 2.472 109.697 5.48C111.841 8.456 112.913 12.728 112.913 18.296ZM105.617 18.296C105.617 16.632 105.537 15.128 105.377 13.784C105.217 12.408 104.961 11.224 104.609 10.232C104.257 9.24 103.777 8.472 103.169 7.928C102.561 7.384 101.809 7.112 100.913 7.112C100.017 7.112 99.2653 7.384 98.6573 7.928C98.0813 8.472 97.6013 9.24 97.2173 10.232C96.8653 11.224 96.6093 12.408 96.4493 13.784C96.2893 15.128 96.2093 16.632 96.2093 18.296C96.2093 19.96 96.2893 21.48 96.4493 22.856C96.6093 24.232 96.8653 25.416 97.2173 26.408C97.6013 27.4 98.0813 28.168 98.6573 28.712C99.2653 29.256 100.017 29.528 100.913 29.528C101.809 29.528 102.561 29.256 103.169 28.712C103.777 28.168 104.257 27.4 104.609 26.408C104.961 25.416 105.217 24.232 105.377 22.856C105.537 21.48 105.617 19.96 105.617 18.296Z" fill="black"/>
</g>
<defs>
<clipPath id="clip0_95_140">
<rect width="120" height="69" fill="white"/>
</clipPath>
</defs>
</svg>
