<svg width="30" height="30" viewBox="0 0 30 30" fill="none" xmlns="http://www.w3.org/2000/svg">
<g clip-path="url(#clip0_65_129)">
<path d="M8.9625 5.71469C10.7761 4.03773 13.0892 3.11157 15.4839 3.10352C20.3649 3.10352 24.4167 6.99499 24.8577 12.013C27.7464 12.4508 30 15.0445 30 18.2277C30 21.7223 27.2819 24.5066 23.9885 24.5066H7.82843C4.06694 24.5066 0.967743 21.3273 0.967743 17.3424C0.967743 13.9121 3.26492 11.0713 6.30605 10.3514C6.56553 8.67221 7.57258 6.99888 8.9625 5.71469ZM10.1474 7.18761C8.77379 8.45818 8.05524 9.98947 8.05524 11.188V12.0597L7.24778 12.1551C4.7129 12.4528 2.78226 14.6845 2.78226 17.3424C2.78226 20.1968 5.01411 22.5609 7.82843 22.5609H23.9885C26.3347 22.5609 28.1855 20.5918 28.1855 18.2277C28.1855 15.8617 26.3347 13.8926 23.9885 13.8926H23.0813V12.9198C23.0831 8.60022 19.7081 5.04925 15.4839 5.04925C13.524 5.05765 11.6314 5.81671 10.1474 7.18956V7.18761Z" fill="white"/>
</g>
<defs>
<clipPath id="clip0_65_129">
<rect width="30" height="30" fill="white"/>
</clipPath>
</defs>
</svg>
