<svg width="731" height="176" viewBox="0 0 731 176" fill="none" xmlns="http://www.w3.org/2000/svg">
<rect width="731" height="176" fill="#1F1B24"/>
<path d="M74.625 41V132H55.9375V41H74.625ZM102.625 41V55.6875H28.375V41H102.625ZM191.562 36V132H173.5V36H191.562ZM237.562 133.25C232.312 133.25 227.604 132.417 223.438 130.75C219.271 129.042 215.729 126.688 212.812 123.688C209.938 120.688 207.729 117.208 206.188 113.25C204.646 109.25 203.875 105 203.875 100.5V98C203.875 92.875 204.604 88.1875 206.062 83.9375C207.521 79.6875 209.604 76 212.312 72.875C215.062 69.75 218.396 67.3542 222.312 65.6875C226.229 63.9792 230.646 63.125 235.562 63.125C240.354 63.125 244.604 63.9167 248.312 65.5C252.021 67.0833 255.125 69.3333 257.625 72.25C260.167 75.1667 262.083 78.6667 263.375 82.75C264.667 86.7917 265.312 91.2917 265.312 96.25V103.75H211.562V91.75H247.625V90.375C247.625 87.875 247.167 85.6458 246.25 83.6875C245.375 81.6875 244.042 80.1042 242.25 78.9375C240.458 77.7708 238.167 77.1875 235.375 77.1875C233 77.1875 230.958 77.7083 229.25 78.75C227.542 79.7917 226.146 81.25 225.062 83.125C224.021 85 223.229 87.2083 222.688 89.75C222.188 92.25 221.938 95 221.938 98V100.5C221.938 103.208 222.312 105.708 223.062 108C223.854 110.292 224.958 112.271 226.375 113.938C227.833 115.604 229.583 116.896 231.625 117.812C233.708 118.729 236.062 119.188 238.688 119.188C241.938 119.188 244.958 118.562 247.75 117.312C250.583 116.021 253.021 114.083 255.062 111.5L263.812 121C262.396 123.042 260.458 125 258 126.875C255.583 128.75 252.667 130.292 249.25 131.5C245.833 132.667 241.938 133.25 237.562 133.25ZM317.125 41H333L356.375 107.812L379.75 41H395.625L362.75 132H350L317.125 41ZM308.562 41H324.375L327.25 106.125V132H308.562V41ZM388.375 41H404.25V132H385.5V106.125L388.375 41ZM456.062 116.75V86.625C456.062 84.4583 455.708 82.6042 455 81.0625C454.292 79.4792 453.188 78.25 451.688 77.375C450.229 76.5 448.333 76.0625 446 76.0625C444 76.0625 442.271 76.4167 440.812 77.125C439.354 77.7917 438.229 78.7708 437.438 80.0625C436.646 81.3125 436.25 82.7917 436.25 84.5H418.25C418.25 81.625 418.917 78.8958 420.25 76.3125C421.583 73.7292 423.521 71.4583 426.062 69.5C428.604 67.5 431.625 65.9375 435.125 64.8125C438.667 63.6875 442.625 63.125 447 63.125C452.25 63.125 456.917 64 461 65.75C465.083 67.5 468.292 70.125 470.625 73.625C473 77.125 474.188 81.5 474.188 86.75V115.688C474.188 119.396 474.417 122.438 474.875 124.812C475.333 127.146 476 129.188 476.875 130.938V132H458.688C457.812 130.167 457.146 127.875 456.688 125.125C456.271 122.333 456.062 119.542 456.062 116.75ZM458.438 90.8125L458.562 101H448.5C446.125 101 444.062 101.271 442.312 101.812C440.562 102.354 439.125 103.125 438 104.125C436.875 105.083 436.042 106.208 435.5 107.5C435 108.792 434.75 110.208 434.75 111.75C434.75 113.292 435.104 114.688 435.812 115.938C436.521 117.146 437.542 118.104 438.875 118.812C440.208 119.479 441.771 119.812 443.562 119.812C446.271 119.812 448.625 119.271 450.625 118.188C452.625 117.104 454.167 115.771 455.25 114.188C456.375 112.604 456.958 111.104 457 109.688L461.75 117.312C461.083 119.021 460.167 120.792 459 122.625C457.875 124.458 456.438 126.188 454.688 127.812C452.938 129.396 450.833 130.708 448.375 131.75C445.917 132.75 443 133.25 439.625 133.25C435.333 133.25 431.438 132.396 427.938 130.688C424.479 128.938 421.729 126.542 419.688 123.5C417.688 120.417 416.688 116.917 416.688 113C416.688 109.458 417.354 106.312 418.688 103.562C420.021 100.812 421.979 98.5 424.562 96.625C427.188 94.7083 430.458 93.2708 434.375 92.3125C438.292 91.3125 442.833 90.8125 448 90.8125H458.438ZM524.625 113.312C524.625 112.021 524.25 110.854 523.5 109.812C522.75 108.771 521.354 107.812 519.312 106.938C517.312 106.021 514.417 105.188 510.625 104.438C507.208 103.688 504.021 102.75 501.062 101.625C498.146 100.458 495.604 99.0625 493.438 97.4375C491.312 95.8125 489.646 93.8958 488.438 91.6875C487.229 89.4375 486.625 86.875 486.625 84C486.625 81.1667 487.229 78.5 488.438 76C489.688 73.5 491.458 71.2917 493.75 69.375C496.083 67.4167 498.917 65.8958 502.25 64.8125C505.625 63.6875 509.417 63.125 513.625 63.125C519.5 63.125 524.542 64.0625 528.75 65.9375C533 67.8125 536.25 70.3958 538.5 73.6875C540.792 76.9375 541.938 80.6458 541.938 84.8125H523.938C523.938 83.0625 523.562 81.5 522.812 80.125C522.104 78.7083 520.979 77.6042 519.438 76.8125C517.938 75.9792 515.979 75.5625 513.562 75.5625C511.562 75.5625 509.833 75.9167 508.375 76.625C506.917 77.2917 505.792 78.2083 505 79.375C504.25 80.5 503.875 81.75 503.875 83.125C503.875 84.1667 504.083 85.1042 504.5 85.9375C504.958 86.7292 505.688 87.4583 506.688 88.125C507.688 88.7917 508.979 89.4167 510.562 90C512.188 90.5417 514.188 91.0417 516.562 91.5C521.438 92.5 525.792 93.8125 529.625 95.4375C533.458 97.0208 536.5 99.1875 538.75 101.938C541 104.646 542.125 108.208 542.125 112.625C542.125 115.625 541.458 118.375 540.125 120.875C538.792 123.375 536.875 125.562 534.375 127.438C531.875 129.271 528.875 130.708 525.375 131.75C521.917 132.75 518.021 133.25 513.688 133.25C507.396 133.25 502.062 132.125 497.688 129.875C493.354 127.625 490.062 124.771 487.812 121.312C485.604 117.812 484.5 114.229 484.5 110.562H501.562C501.646 113.021 502.271 115 503.438 116.5C504.646 118 506.167 119.083 508 119.75C509.875 120.417 511.896 120.75 514.062 120.75C516.396 120.75 518.333 120.438 519.875 119.812C521.417 119.146 522.583 118.271 523.375 117.188C524.208 116.062 524.625 114.771 524.625 113.312ZM586.938 64.375V77.125H547.562V64.375H586.938ZM557.312 47.6875H575.312V111.625C575.312 113.583 575.562 115.083 576.062 116.125C576.604 117.167 577.396 117.896 578.438 118.312C579.479 118.688 580.792 118.875 582.375 118.875C583.5 118.875 584.5 118.833 585.375 118.75C586.292 118.625 587.062 118.5 587.688 118.375L587.75 131.625C586.208 132.125 584.542 132.521 582.75 132.812C580.958 133.104 578.979 133.25 576.812 133.25C572.854 133.25 569.396 132.604 566.438 131.312C563.521 129.979 561.271 127.854 559.688 124.938C558.104 122.021 557.312 118.188 557.312 113.438V47.6875ZM628.312 133.25C623.062 133.25 618.354 132.417 614.188 130.75C610.021 129.042 606.479 126.688 603.562 123.688C600.688 120.688 598.479 117.208 596.938 113.25C595.396 109.25 594.625 105 594.625 100.5V98C594.625 92.875 595.354 88.1875 596.812 83.9375C598.271 79.6875 600.354 76 603.062 72.875C605.812 69.75 609.146 67.3542 613.062 65.6875C616.979 63.9792 621.396 63.125 626.312 63.125C631.104 63.125 635.354 63.9167 639.062 65.5C642.771 67.0833 645.875 69.3333 648.375 72.25C650.917 75.1667 652.833 78.6667 654.125 82.75C655.417 86.7917 656.062 91.2917 656.062 96.25V103.75H602.312V91.75H638.375V90.375C638.375 87.875 637.917 85.6458 637 83.6875C636.125 81.6875 634.792 80.1042 633 78.9375C631.208 77.7708 628.917 77.1875 626.125 77.1875C623.75 77.1875 621.708 77.7083 620 78.75C618.292 79.7917 616.896 81.25 615.812 83.125C614.771 85 613.979 87.2083 613.438 89.75C612.938 92.25 612.688 95 612.688 98V100.5C612.688 103.208 613.062 105.708 613.812 108C614.604 110.292 615.708 112.271 617.125 113.938C618.583 115.604 620.333 116.896 622.375 117.812C624.458 118.729 626.812 119.188 629.438 119.188C632.688 119.188 635.708 118.562 638.5 117.312C641.333 116.021 643.771 114.083 645.812 111.5L654.562 121C653.146 123.042 651.208 125 648.75 126.875C646.333 128.75 643.417 130.292 640 131.5C636.583 132.667 632.688 133.25 628.312 133.25ZM684.312 79.125V132H666.312V64.375H683.25L684.312 79.125ZM704.688 63.9375L704.375 80.625C703.5 80.5 702.438 80.3958 701.188 80.3125C699.979 80.1875 698.875 80.125 697.875 80.125C695.333 80.125 693.125 80.4583 691.25 81.125C689.417 81.75 687.875 82.6875 686.625 83.9375C685.417 85.1875 684.5 86.7083 683.875 88.5C683.292 90.2917 682.958 92.3333 682.875 94.625L679.25 93.5C679.25 89.125 679.688 85.1042 680.562 81.4375C681.438 77.7292 682.708 74.5 684.375 71.75C686.083 69 688.167 66.875 690.625 65.375C693.083 63.875 695.896 63.125 699.062 63.125C700.062 63.125 701.083 63.2083 702.125 63.375C703.167 63.5 704.021 63.6875 704.688 63.9375Z" fill="#BB96FC"/>
<g clip-path="url(#clip0_19_177)">
<path d="M120.287 71.7701C116.438 75.6361 114.737 80.343 115.81 84.7104C116.531 87.6176 118.531 90.2128 121.54 91.9642C122.338 92.4312 123.211 92.8403 124.158 93.1915C124.141 92.9922 124.132 92.7847 124.132 92.5688C124.128 91.2739 124.391 90.0461 124.861 88.9268C124.42 88.7347 124.021 88.5344 123.655 88.3176C121.477 87.05 120.352 85.4615 119.916 83.7171C119.055 80.2235 121.154 75.4189 127.04 71.8506L124.84 68.2272C123.099 69.2842 121.577 70.477 120.287 71.7701V71.7701ZM142.054 68.2714L139.872 71.8846C145.775 75.4865 147.905 80.2984 147.059 83.7907C146.633 85.5327 145.516 87.1151 143.345 88.371C142.98 88.5858 142.582 88.7839 142.168 88.9654C142.644 90.0873 142.905 91.3248 142.908 92.6197C142.909 92.8356 142.909 93.0348 142.885 93.2422C143.822 92.8878 144.684 92.4917 145.48 92.0291C148.48 90.294 150.465 87.7096 151.171 84.8063C152.575 78.9913 149.038 72.5237 142.054 68.2714V68.2714ZM128.359 87.4255C127.043 88.7418 126.226 90.5574 126.24 92.5746C126.251 96.6087 129.514 99.8549 133.54 99.8741C137.566 99.8767 140.802 96.6399 140.8 92.614C140.789 88.5798 137.526 85.3337 133.5 85.3145C131.483 85.3007 129.667 86.1176 128.359 87.4255V87.4255ZM130.116 89.1818C130.985 88.3125 132.187 87.7763 133.499 87.7798C136.146 87.7787 138.327 89.9594 138.334 92.599C138.342 95.2553 136.173 97.4076 133.533 97.4004C130.893 97.3933 128.713 95.2292 128.705 92.5729C128.694 91.2531 129.246 90.051 130.116 89.1818V89.1818ZM131.606 90.6716C131.117 91.1601 130.828 91.8316 130.822 92.587C130.818 94.0894 132.016 95.2879 133.527 95.292C135.021 95.2961 136.222 94.0957 136.218 92.6016C136.214 91.0909 135.015 89.8923 133.513 89.8965C132.766 89.8945 132.094 90.1832 131.606 90.6716V90.6716ZM127.072 99.3834L127.097 108.431L134.351 108.451L140.021 108.458L139.988 99.4184C138.307 101.016 136.036 101.989 133.545 101.982C131.039 101.976 128.761 100.99 127.072 99.3834ZM122.329 113.215L126.38 115.923L140.772 115.964L144.807 113.277L140.757 110.568L126.372 110.538L122.329 113.215ZM122.349 120.737L126.409 123.451L140.784 123.493L144.827 120.798L140.777 118.089L126.393 118.041L122.349 120.737ZM127.16 125.564L132.553 130.958L132.543 125.575L127.16 125.564ZM134.664 125.584L134.678 130.963L140.041 125.601L134.664 125.584Z" fill="#BB96FC"/>
</g>
<path fill-rule="evenodd" clip-rule="evenodd" d="M133 58C139.075 58 144 53.0751 144 47C144 40.9249 139.075 36 133 36C126.925 36 122 40.9249 122 47C122 53.0751 126.925 58 133 58ZM133 56C137.971 56 142 51.9706 142 47C142 42.0294 137.971 38 133 38C128.029 38 124 42.0294 124 47C124 51.9706 128.029 56 133 56Z" fill="#BB96FC"/>
<defs>
<clipPath id="clip0_19_177">
<rect width="59.9411" height="60.267" fill="white" transform="translate(91 92.3848) rotate(-45)"/>
</clipPath>
</defs>
</svg>
